<?xml version="1.0" encoding="UTF-8"?><svg id="Capa_1" xmlns="http://www.w3.org/2000/svg" viewBox="0 0 294 278.06"><g><g><path d="M148.3,140.41c-1.65,0-3-1.34-3-3s1.34-3,3-3c35.41,0,64.21-28.8,64.21-64.21S183.71,5.99,148.3,5.99c-1.65,0-3-1.34-3-3s1.34-3,3-3c38.71,0,70.2,31.49,70.2,70.2s-31.49,70.2-70.2,70.2Z" style="fill:#ffffff;"/><path d="M148.3,121.2c-1.65,0-3-1.34-3-3s1.34-3,3-3c24.82,0,45.01-20.19,45.01-45.01s-20.19-45.01-45.01-45.01c-1.65,0-3-1.34-3-3s1.34-3,3-3c28.12,0,51,22.88,51,51s-22.88,51-51,51Z" style="fill:#ffffff;"/><path d="M148.3,102c-1.65,0-3-1.34-3-3s1.34-3,3-3c14.23,0,25.81-11.58,25.81-25.81s-11.58-25.81-25.81-25.81c-1.65,0-3-1.34-3-3s1.34-3,3-3c17.53,0,31.8,14.26,31.8,31.8s-14.26,31.8-31.8,31.8Z" style="fill:#ffffff;"/><path d="M148.3,82.8c-1.65,0-3-1.34-3-3s1.34-3,3-3c3.64,0,6.61-2.96,6.61-6.6s-2.96-6.61-6.61-6.61c-1.65,0-3-1.34-3-3s1.34-3,3-3c6.95,0,12.6,5.65,12.6,12.6s-5.65,12.6-12.6,12.6Z" style="fill:#ffffff;"/></g><path d="M148.3,159.61c-44,0-79.8-35.8-79.8-79.81S104.3,0,148.3,0c1.65,0,3,1.34,3,3s-1.34,3-3,3c-40.7,0-73.81,33.11-73.81,73.81s33.11,73.81,73.81,73.81c1.65,0,3,1.34,3,3s-1.34,3-3,3Z" style="fill:#ffffff;"/><path d="M148.3,140.41c-33.41,0-60.6-27.19-60.6-60.6s27.19-60.6,60.6-60.6c1.65,0,3,1.34,3,3s-1.34,3-3,3c-30.11,0-54.61,24.5-54.61,54.61s24.5,54.61,54.61,54.61c1.65,0,3,1.34,3,3s-1.34,3-3,3Z" style="fill:#ffffff;"/><path d="M148.3,121.2c-22.83,0-41.4-18.57-41.4-41.4s18.57-41.4,41.4-41.4c1.65,0,3,1.34,3,3s-1.34,3-3,3c-19.52,0-35.41,15.88-35.41,35.41s15.88,35.41,35.41,35.41c1.65,0,3,1.34,3,3s-1.34,3-3,3Z" style="fill:#ffffff;"/><path d="M148.3,102c-12.24,0-22.2-9.96-22.2-22.2s9.96-22.2,22.2-22.2c1.65,0,3,1.34,3,3s-1.34,3-3,3c-8.94,0-16.21,7.27-16.21,16.21s7.27,16.21,16.21,16.21c1.65,0,3,1.34,3,3s-1.34,3-3,3Z" style="fill:#ffffff;"/></g><g><g><path d="M148.3,140.41c-1.65,0-3-1.34-3-3s1.34-3,3-3c35.41,0,64.21-28.8,64.21-64.21S183.71,5.99,148.3,5.99c-1.65,0-3-1.34-3-3s1.34-3,3-3c38.71,0,70.2,31.49,70.2,70.2s-31.49,70.2-70.2,70.2Z" style="fill:#ffffff;"/><path d="M148.3,121.2c-1.65,0-3-1.34-3-3s1.34-3,3-3c24.82,0,45.01-20.19,45.01-45.01s-20.19-45.01-45.01-45.01c-1.65,0-3-1.34-3-3s1.34-3,3-3c28.12,0,51,22.88,51,51s-22.88,51-51,51Z" style="fill:#ffffff;"/><path d="M148.3,102c-1.65,0-3-1.34-3-3s1.34-3,3-3c14.23,0,25.81-11.58,25.81-25.81s-11.58-25.81-25.81-25.81c-1.65,0-3-1.34-3-3s1.34-3,3-3c17.53,0,31.8,14.26,31.8,31.8s-14.26,31.8-31.8,31.8Z" style="fill:#ffffff;"/><path d="M148.3,82.8c-1.65,0-3-1.34-3-3s1.34-3,3-3c3.64,0,6.61-2.96,6.61-6.6s-2.96-6.61-6.61-6.61c-1.65,0-3-1.34-3-3s1.34-3,3-3c6.95,0,12.6,5.65,12.6,12.6s-5.65,12.6-12.6,12.6Z" style="fill:#ffffff;"/></g><path d="M148.3,159.61c-44,0-79.8-35.8-79.8-79.81S104.3,0,148.3,0c1.65,0,3,1.34,3,3s-1.34,3-3,3c-40.7,0-73.81,33.11-73.81,73.81s33.11,73.81,73.81,73.81c1.65,0,3,1.34,3,3s-1.34,3-3,3Z" style="fill:#ffffff;"/><path d="M148.3,140.41c-33.41,0-60.6-27.19-60.6-60.6s27.19-60.6,60.6-60.6c1.65,0,3,1.34,3,3s-1.34,3-3,3c-30.11,0-54.61,24.5-54.61,54.61s24.5,54.61,54.61,54.61c1.65,0,3,1.34,3,3s-1.34,3-3,3Z" style="fill:#ffffff;"/><path d="M148.3,121.2c-22.83,0-41.4-18.57-41.4-41.4s18.57-41.4,41.4-41.4c1.65,0,3,1.34,3,3s-1.34,3-3,3c-19.52,0-35.41,15.88-35.41,35.41s15.88,35.41,35.41,35.41c1.65,0,3,1.34,3,3s-1.34,3-3,3Z" style="fill:#ffffff;"/><path d="M148.3,102c-12.24,0-22.2-9.96-22.2-22.2s9.96-22.2,22.2-22.2c1.65,0,3,1.34,3,3s-1.34,3-3,3c-8.94,0-16.21,7.27-16.21,16.21s7.27,16.21,16.21,16.21c1.65,0,3,1.34,3,3s-1.34,3-3,3Z" style="fill:#ffffff;"/></g><g><g><path d="M222.24,273.93c-12.72,0-25.59-3.45-37.15-10.69-32.81-20.55-42.78-63.95-22.24-96.76,.88-1.4,2.73-1.82,4.13-.95,1.4,.88,1.83,2.73,.95,4.13-18.79,30.01-9.67,69.71,20.34,88.5,30.01,18.79,69.71,9.66,88.5-20.34,.88-1.4,2.73-1.82,4.13-.95,1.4,.88,1.83,2.73,.95,4.13-13.31,21.25-36.22,32.92-59.61,32.93Z" style="fill:#ffffff;"/><path d="M222.27,254.77c-9.46,0-18.76-2.65-26.99-7.8-11.55-7.24-19.6-18.53-22.65-31.8-3.05-13.27-.74-26.94,6.49-38.5,.88-1.4,2.73-1.82,4.13-.95,1.4,.88,1.83,2.73,.95,4.13-6.39,10.2-8.42,22.26-5.73,33.97,2.69,11.71,9.79,21.68,19.99,28.06,10.2,6.39,22.27,8.42,33.97,5.73,11.71-2.69,21.68-9.79,28.06-19.99,.88-1.4,2.73-1.82,4.13-.95,1.4,.88,1.83,2.73,.95,4.13-7.24,11.55-18.53,19.6-31.8,22.65-3.82,.88-7.68,1.31-11.51,1.31Z" style="fill:#ffffff;"/><path d="M222.3,235.56c-5.9,0-11.7-1.65-16.83-4.87-14.86-9.31-19.38-28.97-10.07-43.83,.88-1.4,2.73-1.82,4.13-.95,1.4,.88,1.83,2.73,.95,4.13-7.55,12.06-3.88,28.02,8.18,35.57,5.85,3.66,12.76,4.83,19.48,3.29,6.71-1.54,12.43-5.61,16.09-11.46,.88-1.4,2.73-1.83,4.13-.95,1.4,.88,1.83,2.73,.95,4.13-4.51,7.2-11.55,12.22-19.83,14.12-2.38,.55-4.79,.82-7.17,.82Z" style="fill:#ffffff;"/><path d="M222.33,216.35c-2.34,0-4.63-.66-6.67-1.93-2.85-1.79-4.84-4.58-5.59-7.85-.75-3.28-.18-6.66,1.6-9.51,.88-1.4,2.73-1.83,4.13-.95,1.4,.88,1.83,2.73,.95,4.13-.94,1.5-1.24,3.27-.84,4.99,.4,1.72,1.44,3.18,2.93,4.12,3.08,1.93,7.17,.99,9.1-2.09,.88-1.4,2.73-1.83,4.13-.95,1.4,.88,1.83,2.73,.95,4.13-1.79,2.85-4.58,4.84-7.85,5.59-.94,.22-1.9,.32-2.84,.32Z" style="fill:#ffffff;"/></g><path d="M279.31,242.41c-.54,0-1.09-.15-1.59-.46-1.4-.88-1.83-2.73-.95-4.13,21.6-34.49,11.11-80.13-23.38-101.73-16.72-10.48-36.51-13.81-55.71-9.4-19.2,4.41-35.55,16.06-46.02,32.78-.88,1.4-2.73,1.82-4.13,.95-1.4-.88-1.83-2.73-.95-4.13,11.32-18.08,28.99-30.67,49.76-35.44,20.76-4.78,42.15-1.17,60.24,10.16,37.29,23.36,48.64,72.7,25.28,109.99-.57,.91-1.54,1.41-2.54,1.41Z" style="fill:#ffffff;"/><path d="M263.04,232.22c-.54,0-1.09-.15-1.59-.46-1.4-.88-1.83-2.73-.95-4.13,7.75-12.37,10.22-27.01,6.95-41.22-3.27-14.21-11.88-26.3-24.25-34.05-25.52-15.98-59.29-8.22-75.27,17.3-.88,1.4-2.73,1.82-4.13,.95-1.4-.88-1.83-2.73-.95-4.13,17.74-28.32,55.21-36.93,83.53-19.2,13.73,8.6,23.29,22.02,26.91,37.78,3.62,15.77,.88,32.01-7.71,45.74-.57,.91-1.54,1.41-2.54,1.41Z" style="fill:#ffffff;"/><path d="M246.76,222.02c-.54,0-1.09-.15-1.59-.46-1.4-.88-1.83-2.73-.95-4.13,10.36-16.55,5.33-38.44-11.22-48.8-16.55-10.36-38.44-5.33-48.8,11.22-.88,1.4-2.73,1.82-4.13,.95-1.4-.88-1.83-2.73-.95-4.13,12.12-19.35,37.71-25.23,57.06-13.12,19.35,12.12,25.23,37.71,13.12,57.06-.57,.91-1.54,1.41-2.54,1.41Z" style="fill:#ffffff;"/><path d="M230.49,211.83c-.54,0-1.09-.15-1.59-.46-1.4-.88-1.83-2.73-.95-4.13,4.74-7.57,2.44-17.59-5.13-22.34-7.57-4.75-17.6-2.44-22.34,5.13-.88,1.4-2.73,1.82-4.13,.95-1.4-.88-1.83-2.73-.95-4.13,6.5-10.37,20.22-13.53,30.6-7.03,10.37,6.5,13.53,20.22,7.03,30.59-.57,.91-1.54,1.41-2.54,1.41Z" style="fill:#ffffff;"/></g><g><g><path d="M222.24,273.93c-12.72,0-25.59-3.45-37.15-10.69-32.81-20.55-42.78-63.95-22.24-96.76,.88-1.4,2.73-1.82,4.13-.95,1.4,.88,1.83,2.73,.95,4.13-18.79,30.01-9.67,69.71,20.34,88.5,30.01,18.79,69.71,9.66,88.5-20.34,.88-1.4,2.73-1.82,4.13-.95,1.4,.88,1.83,2.73,.95,4.13-13.31,21.25-36.22,32.92-59.61,32.93Z" style="fill:#ffffff;"/><path d="M222.27,254.77c-9.46,0-18.76-2.65-26.99-7.8-11.55-7.24-19.6-18.53-22.65-31.8-3.05-13.27-.74-26.94,6.49-38.5,.88-1.4,2.73-1.82,4.13-.95,1.4,.88,1.83,2.73,.95,4.13-6.39,10.2-8.42,22.26-5.73,33.97,2.69,11.71,9.79,21.68,19.99,28.06,10.2,6.39,22.27,8.42,33.97,5.73,11.71-2.69,21.68-9.79,28.06-19.99,.88-1.4,2.73-1.82,4.13-.95,1.4,.88,1.83,2.73,.95,4.13-7.24,11.55-18.53,19.6-31.8,22.65-3.82,.88-7.68,1.31-11.51,1.31Z" style="fill:#ffffff;"/><path d="M222.3,235.56c-5.9,0-11.7-1.65-16.83-4.87-14.86-9.31-19.38-28.97-10.07-43.83,.88-1.4,2.73-1.82,4.13-.95,1.4,.88,1.83,2.73,.95,4.13-7.55,12.06-3.88,28.02,8.18,35.57,5.85,3.66,12.76,4.83,19.48,3.29,6.71-1.54,12.43-5.61,16.09-11.46,.88-1.4,2.73-1.83,4.13-.95,1.4,.88,1.83,2.73,.95,4.13-4.51,7.2-11.55,12.22-19.83,14.12-2.38,.55-4.79,.82-7.17,.82Z" style="fill:#ffffff;"/><path d="M222.33,216.35c-2.34,0-4.63-.66-6.67-1.93-2.85-1.79-4.84-4.58-5.59-7.85-.75-3.28-.18-6.66,1.6-9.51,.88-1.4,2.73-1.83,4.13-.95,1.4,.88,1.83,2.73,.95,4.13-.94,1.5-1.24,3.27-.84,4.99,.4,1.72,1.44,3.18,2.93,4.12,3.08,1.93,7.17,.99,9.1-2.09,.88-1.4,2.73-1.83,4.13-.95,1.4,.88,1.83,2.73,.95,4.13-1.79,2.85-4.58,4.84-7.85,5.59-.94,.22-1.9,.32-2.84,.32Z" style="fill:#ffffff;"/></g><path d="M279.31,242.41c-.54,0-1.09-.15-1.59-.46-1.4-.88-1.83-2.73-.95-4.13,21.6-34.49,11.11-80.13-23.38-101.73-16.72-10.48-36.51-13.81-55.71-9.4-19.2,4.41-35.55,16.06-46.02,32.78-.88,1.4-2.73,1.82-4.13,.95-1.4-.88-1.83-2.73-.95-4.13,11.32-18.08,28.99-30.67,49.76-35.44,20.76-4.78,42.15-1.17,60.24,10.16,37.29,23.36,48.64,72.7,25.28,109.99-.57,.91-1.54,1.41-2.54,1.41Z" style="fill:#ffffff;"/><path d="M263.04,232.22c-.54,0-1.09-.15-1.59-.46-1.4-.88-1.83-2.73-.95-4.13,7.75-12.37,10.22-27.01,6.95-41.22-3.27-14.21-11.88-26.3-24.25-34.05-25.52-15.98-59.29-8.22-75.27,17.3-.88,1.4-2.73,1.82-4.13,.95-1.4-.88-1.83-2.73-.95-4.13,17.74-28.32,55.21-36.93,83.53-19.2,13.73,8.6,23.29,22.02,26.91,37.78,3.62,15.77,.88,32.01-7.71,45.74-.57,.91-1.54,1.41-2.54,1.41Z" style="fill:#ffffff;"/><path d="M246.76,222.02c-.54,0-1.09-.15-1.59-.46-1.4-.88-1.83-2.73-.95-4.13,10.36-16.55,5.33-38.44-11.22-48.8-16.55-10.36-38.44-5.33-48.8,11.22-.88,1.4-2.73,1.82-4.13,.95-1.4-.88-1.83-2.73-.95-4.13,12.12-19.35,37.71-25.23,57.06-13.12,19.35,12.12,25.23,37.71,13.12,57.06-.57,.91-1.54,1.41-2.54,1.41Z" style="fill:#ffffff;"/><path d="M230.49,211.83c-.54,0-1.09-.15-1.59-.46-1.4-.88-1.83-2.73-.95-4.13,4.74-7.57,2.44-17.59-5.13-22.34-7.57-4.75-17.6-2.44-22.34,5.13-.88,1.4-2.73,1.82-4.13,.95-1.4-.88-1.83-2.73-.95-4.13,6.5-10.37,20.22-13.53,30.6-7.03,10.37,6.5,13.53,20.22,7.03,30.59-.57,.91-1.54,1.41-2.54,1.41Z" style="fill:#ffffff;"/></g><g><g><path d="M13.03,241.5c-1.01,0-1.99-.51-2.55-1.42C.63,224.09-2.41,205.25,1.92,187.02c4.33-18.24,15.51-33.7,31.49-43.54,32.96-20.31,76.29-10.02,96.6,22.94,.87,1.41,.43,3.25-.98,4.12-1.41,.87-3.25,.43-4.12-.98-18.58-30.14-58.21-39.55-88.35-20.98-14.61,9.01-24.84,23.15-28.8,39.83-3.96,16.68-1.18,33.91,7.82,48.52,.87,1.41,.43,3.25-.98,4.12-.49,.3-1.03,.45-1.57,.45Z" style="fill:#ffffff;"/><path d="M29.38,231.42c-1.01,0-1.99-.51-2.55-1.42-7.15-11.61-9.36-25.29-6.21-38.54,3.15-13.25,11.27-24.48,22.88-31.63,11.61-7.15,25.29-9.36,38.54-6.21,13.25,3.15,24.48,11.27,31.63,22.88,.87,1.41,.43,3.25-.98,4.12-1.41,.86-3.25,.43-4.12-.98-13.02-21.13-40.8-27.72-61.93-14.71-10.25,6.31-17.41,16.23-20.19,27.92-2.78,11.69-.83,23.77,5.48,34.01,.87,1.41,.43,3.25-.98,4.12-.49,.3-1.03,.45-1.57,.45Z" style="fill:#ffffff;"/><path d="M45.72,221.35c-1.01,0-1.99-.51-2.55-1.42-4.46-7.24-5.83-15.77-3.87-24.03,1.96-8.26,7.03-15.26,14.26-19.72,7.24-4.46,15.77-5.84,24.03-3.87,8.26,1.96,15.26,7.03,19.72,14.26,.87,1.41,.43,3.25-.98,4.12-1.41,.87-3.25,.43-4.12-.98-3.62-5.87-9.3-9.99-16.01-11.58-6.7-1.59-13.63-.47-19.5,3.14-12.11,7.46-15.9,23.39-8.43,35.51,.87,1.41,.43,3.25-.98,4.12-.49,.3-1.03,.45-1.57,.45Z" style="fill:#ffffff;"/><path d="M62.07,211.28c-1.01,0-1.99-.51-2.55-1.42-3.64-5.91-1.8-13.69,4.12-17.33,5.91-3.65,13.69-1.8,17.33,4.12,.87,1.41,.43,3.25-.98,4.12-1.41,.87-3.26,.43-4.12-.98-1.91-3.1-5.99-4.07-9.09-2.16-1.5,.93-2.56,2.38-2.96,4.1-.41,1.72-.12,3.49,.81,4.99,.87,1.41,.43,3.25-.98,4.12-.49,.3-1.03,.45-1.57,.45Z" style="fill:#ffffff;"/></g><path d="M78.54,278.06c-6.18,0-12.4-.72-18.56-2.19-20.73-4.92-38.31-17.64-49.5-35.8-.87-1.41-.43-3.25,.98-4.12,1.41-.87,3.25-.43,4.12,.98,10.35,16.8,26.61,28.56,45.78,33.11,19.17,4.55,38.98,1.36,55.78-8.99,16.8-10.35,28.56-26.61,33.11-45.78,4.55-19.17,1.36-38.98-8.99-55.78-.87-1.41-.43-3.25,.98-4.12s3.25-.43,4.12,.98c11.19,18.16,14.64,39.58,9.72,60.31-4.92,20.73-17.64,38.31-35.8,49.5-12.76,7.86-27.14,11.91-41.74,11.91Z" style="fill:#ffffff;"/><path d="M78.52,258.79c-20.35,0-40.25-10.23-51.69-28.8-.87-1.41-.43-3.25,.98-4.12,1.41-.87,3.25-.43,4.12,.98,15.8,25.63,49.5,33.64,75.14,17.85,12.43-7.66,21.13-19.69,24.5-33.87,3.37-14.18,1.01-28.84-6.65-41.27-.87-1.41-.43-3.25,.98-4.12,1.41-.87,3.25-.43,4.12,.98,8.5,13.79,11.12,30.06,7.38,45.8-3.74,15.74-13.39,29.09-27.18,37.59-9.89,6.09-20.85,8.99-31.69,8.99Z" style="fill:#ffffff;"/><path d="M78.48,239.63c-3.21,0-6.43-.38-9.63-1.14-10.75-2.55-19.87-9.15-25.68-18.57-.87-1.41-.43-3.25,.98-4.12,1.41-.87,3.25-.43,4.12,.98,4.97,8.06,12.77,13.7,21.96,15.88,9.2,2.19,18.7,.65,26.76-4.31,8.06-4.97,13.7-12.77,15.88-21.96,2.18-9.2,.65-18.7-4.31-26.76-.87-1.41-.43-3.25,.98-4.12,1.41-.87,3.25-.43,4.12,.98,11.98,19.44,5.91,44.99-13.53,56.96-6.62,4.08-14.08,6.18-21.65,6.18Z" style="fill:#ffffff;"/><path d="M78.45,220.4c-7.46,0-14.74-3.75-18.93-10.55-.87-1.41-.43-3.25,.98-4.12,1.41-.87,3.26-.43,4.12,.98,4.69,7.61,14.69,9.98,22.3,5.3,3.69-2.27,6.27-5.84,7.27-10.05,1-4.21,.3-8.56-1.97-12.25-.87-1.41-.43-3.25,.98-4.12,1.41-.87,3.26-.43,4.12,.98,6.42,10.42,3.17,24.12-7.25,30.54-3.62,2.23-7.64,3.29-11.61,3.29Z" style="fill:#ffffff;"/></g><g><g><path d="M13.03,241.5c-1.01,0-1.99-.51-2.55-1.42C.63,224.09-2.41,205.25,1.92,187.02c4.33-18.24,15.51-33.7,31.49-43.54,32.96-20.31,76.29-10.02,96.6,22.94,.87,1.41,.43,3.25-.98,4.12-1.41,.87-3.25,.43-4.12-.98-18.58-30.14-58.21-39.55-88.35-20.98-14.61,9.01-24.84,23.15-28.8,39.83-3.96,16.68-1.18,33.91,7.82,48.52,.87,1.41,.43,3.25-.98,4.12-.49,.3-1.03,.45-1.57,.45Z" style="fill:#ffffff;"/><path d="M29.38,231.42c-1.01,0-1.99-.51-2.55-1.42-7.15-11.61-9.36-25.29-6.21-38.54,3.15-13.25,11.27-24.48,22.88-31.63,11.61-7.15,25.29-9.36,38.54-6.21,13.25,3.15,24.48,11.27,31.63,22.88,.87,1.41,.43,3.25-.98,4.12-1.41,.86-3.25,.43-4.12-.98-13.02-21.13-40.8-27.72-61.93-14.71-10.25,6.31-17.41,16.23-20.19,27.92-2.78,11.69-.83,23.77,5.48,34.01,.87,1.41,.43,3.25-.98,4.12-.49,.3-1.03,.45-1.57,.45Z" style="fill:#ffffff;"/><path d="M45.72,221.35c-1.01,0-1.99-.51-2.55-1.42-4.46-7.24-5.83-15.77-3.87-24.03,1.96-8.26,7.03-15.26,14.26-19.72,7.24-4.46,15.77-5.84,24.03-3.87,8.26,1.96,15.26,7.03,19.72,14.26,.87,1.41,.43,3.25-.98,4.12-1.41,.87-3.25,.43-4.12-.98-3.62-5.87-9.3-9.99-16.01-11.58-6.7-1.59-13.63-.47-19.5,3.14-12.11,7.46-15.9,23.39-8.43,35.51,.87,1.41,.43,3.25-.98,4.12-.49,.3-1.03,.45-1.57,.45Z" style="fill:#ffffff;"/><path d="M62.07,211.28c-1.01,0-1.99-.51-2.55-1.42-3.64-5.91-1.8-13.69,4.12-17.33,5.91-3.65,13.69-1.8,17.33,4.12,.87,1.41,.43,3.25-.98,4.12-1.41,.87-3.26,.43-4.12-.98-1.91-3.1-5.99-4.07-9.09-2.16-1.5,.93-2.56,2.38-2.96,4.1-.41,1.72-.12,3.49,.81,4.99,.87,1.41,.43,3.25-.98,4.12-.49,.3-1.03,.45-1.57,.45Z" style="fill:#ffffff;"/></g><path d="M78.54,278.06c-6.18,0-12.4-.72-18.56-2.19-20.73-4.92-38.31-17.64-49.5-35.8-.87-1.41-.43-3.25,.98-4.12,1.41-.87,3.25-.43,4.12,.98,10.35,16.8,26.61,28.56,45.78,33.11,19.17,4.55,38.98,1.36,55.78-8.99,16.8-10.35,28.56-26.61,33.11-45.78,4.55-19.17,1.36-38.98-8.99-55.78-.87-1.41-.43-3.25,.98-4.12s3.25-.43,4.12,.98c11.19,18.16,14.64,39.58,9.72,60.31-4.92,20.73-17.64,38.31-35.8,49.5-12.76,7.86-27.14,11.91-41.74,11.91Z" style="fill:#ffffff;"/><path d="M78.52,258.79c-20.35,0-40.25-10.23-51.69-28.8-.87-1.41-.43-3.25,.98-4.12,1.41-.87,3.25-.43,4.12,.98,15.8,25.63,49.5,33.64,75.14,17.85,12.43-7.66,21.13-19.69,24.5-33.87,3.37-14.18,1.01-28.84-6.65-41.27-.87-1.41-.43-3.25,.98-4.12,1.41-.87,3.25-.43,4.12,.98,8.5,13.79,11.12,30.06,7.38,45.8-3.74,15.74-13.39,29.09-27.18,37.59-9.89,6.09-20.85,8.99-31.69,8.99Z" style="fill:#ffffff;"/><path d="M78.48,239.63c-3.21,0-6.43-.38-9.63-1.14-10.75-2.55-19.87-9.15-25.68-18.57-.87-1.41-.43-3.25,.98-4.12,1.41-.87,3.25-.43,4.12,.98,4.97,8.06,12.77,13.7,21.96,15.88,9.2,2.19,18.7,.65,26.76-4.31,8.06-4.97,13.7-12.77,15.88-21.96,2.18-9.2,.65-18.7-4.31-26.76-.87-1.41-.43-3.25,.98-4.12,1.41-.87,3.25-.43,4.12,.98,11.98,19.44,5.91,44.99-13.53,56.96-6.62,4.08-14.08,6.18-21.65,6.18Z" style="fill:#ffffff;"/><path d="M78.45,220.4c-7.46,0-14.74-3.75-18.93-10.55-.87-1.41-.43-3.25,.98-4.12,1.41-.87,3.26-.43,4.12,.98,4.69,7.61,14.69,9.98,22.3,5.3,3.69-2.27,6.27-5.84,7.27-10.05,1-4.21,.3-8.56-1.97-12.25-.87-1.41-.43-3.25,.98-4.12,1.41-.87,3.26-.43,4.12,.98,6.42,10.42,3.17,24.12-7.25,30.54-3.62,2.23-7.64,3.29-11.61,3.29Z" style="fill:#ffffff;"/></g></svg>